<svg xmlns="http://www.w3.org/2000/svg" viewBox="0 0 1200 800" width="1200" height="800" role="img">
<defs>
<filter id="grain"><feTurbulence type="fractalNoise" baseFrequency="0.9" numOctaves="3" stitchTiles="stitch"/><feColorMatrix type="saturate" values="0"/></filter>
<radialGradient id="vig" cx="50%" cy="45%" r="75%"><stop offset="55%" stop-color="#000" stop-opacity="0"/><stop offset="100%" stop-color="#000" stop-opacity=".78"/></radialGradient>
<linearGradient id="wall" x1="0" y1="0" x2="0" y2="1"><stop offset="0" stop-color="#131a22"/><stop offset="1" stop-color="#070a0d"/></linearGradient><linearGradient id="floor" x1="0" y1="0" x2="0" y2="1"><stop offset="0" stop-color="#15181d"/><stop offset="1" stop-color="#080a0c"/></linearGradient><linearGradient id="glass" x1="0" y1="0" x2="0" y2="1"><stop offset="0" stop-color="#1d2b36"/><stop offset="1" stop-color="#0a1218"/></linearGradient>
</defs>
<rect width="1200" height="800" fill="url(#wall)"/><path d="M0 520 q300 -60 600 -20 q300 40 600 -10 L1200 800 L0 800Z" fill="#0a0f14"/><path d="M0 470 q300 -50 600 -14 q300 36 600 -6 L1200 470 L0 470Z" fill="#0d1a22"/><g fill="#111720" stroke="#1d242d" stroke-width="3"><rect x="420" y="330" width="380" height="220"/><path d="M400 330 h420 l-40 -60 h-340z"/><rect x="470" y="410" width="70" height="90" fill="#070a0e"/><rect x="580" y="410" width="70" height="90" fill="#070a0e"/><rect x="690" y="400" width="80" height="150" fill="#0a0e12"/></g><rect x="700" y="418" width="60" height="18" fill="#c9a94a" opacity=".22"/><text x="610" y="300" font-family="monospace" font-size="14" fill="#5a6674" text-anchor="middle" letter-spacing="2" font-weight="normal">PUMPSTATION 4 · STILLGELEGT 1998</text><g stroke="#1a2129" stroke-width="22" fill="none"><path d="M120 560 h300 M800 560 h280"/></g><g stroke="#212a33" stroke-width="10" fill="none"><path d="M160 520 v80 M1040 520 v80"/></g><rect x="0" y="0" width="1200" height="800" fill="#05080c" opacity=".3"/><rect x="0" y="766" width="1200" height="34" fill="#05070a" opacity=".72"/><text x="16" y="788" font-family="monospace" font-size="15" fill="#d7dde5" text-anchor="start" letter-spacing="1" font-weight="normal">OBJEKT · HALLOWAY-STAUSEE, WARTUNGSZUFAHRT</text><text x="1184" y="788" font-family="monospace" font-size="15" fill="#d7dde5" text-anchor="end" letter-spacing="1" font-weight="normal">13.10.2024 04:30</text>
<rect width="1200" height="800" fill="url(#vig)"/>
<rect width="1200" height="800" filter="url(#grain)" opacity=".07"/>
</svg>