<svg xmlns="http://www.w3.org/2000/svg" viewBox="0 0 1200 800" width="1200" height="800" role="img">
<defs>
<filter id="grain"><feTurbulence type="fractalNoise" baseFrequency="0.9" numOctaves="3" stitchTiles="stitch"/><feColorMatrix type="saturate" values="0"/></filter>
<radialGradient id="vig" cx="50%" cy="45%" r="75%"><stop offset="55%" stop-color="#000" stop-opacity="0"/><stop offset="100%" stop-color="#000" stop-opacity=".78"/></radialGradient>
<linearGradient id="wall" x1="0" y1="0" x2="0" y2="1"><stop offset="0" stop-color="#141b24"/><stop offset="1" stop-color="#070a0e"/></linearGradient><linearGradient id="floor" x1="0" y1="0" x2="0" y2="1"><stop offset="0" stop-color="#15181d"/><stop offset="1" stop-color="#080a0c"/></linearGradient><linearGradient id="glass" x1="0" y1="0" x2="0" y2="1"><stop offset="0" stop-color="#1d2b36"/><stop offset="1" stop-color="#0a1218"/></linearGradient>
</defs>
<rect width="1200" height="800" fill="url(#wall)"/><circle cx="980" cy="150" r="70" fill="#1b232c" opacity=".7"/><g fill="#04060a"><path d="M0 640 L120 520 L200 560 L300 470 L420 570 L520 500 L640 600 L760 520 L900 610 L1040 530 L1200 620 L1200 800 L0 800Z"/></g><g fill="#080c11" stroke="#141a21" stroke-width="3"><rect x="700" y="300" width="12" height="330"/><rect x="790" y="300" width="12" height="330"/><path d="M676 300 h150 l-18 -58 h-114z"/><rect x="690" y="196" width="122" height="50" rx="8"/><path d="M676 300 l150 330 M826 300 l-150 330" stroke-width="2" opacity=".6"/></g><text x="751" y="228" font-family="monospace" font-size="13" fill="#39424d" text-anchor="middle" letter-spacing="2" font-weight="normal">MILLBROOK</text><ellipse cx="420" cy="700" rx="200" ry="60" fill="#121a22" opacity=".8"/><radialGradient id="phoneglow"><stop offset="0" stop-color="#7fa7c6" stop-opacity=".55"/><stop offset="1" stop-color="#7fa7c6" stop-opacity="0"/></radialGradient><circle cx="410" cy="560" r="150" fill="url(#phoneglow)"/><g transform="translate(360,700) scale(1.5)" fill="#0a0e13"><circle cx="0" cy="-58" r="17"/><path d="M-22 -40 q22 -12 44 0 l8 58 l-14 4 l-6 44 h-20 l-6 -44 l-14 -4z"/></g><g transform="translate(470,706) scale(1.42)" fill="#080b10"><circle cx="0" cy="-58" r="17"/><path d="M-22 -40 q22 -12 44 0 l8 58 l-14 4 l-6 44 h-20 l-6 -44 l-14 -4z"/></g><rect x="398" y="548" width="26" height="42" rx="4" fill="#9dc4e0" opacity=".85"/><rect x="0" y="0" width="1200" height="800" fill="#070b10" opacity=".3"/><rect x="0" y="766" width="1200" height="34" fill="#05070a" opacity=".72"/><text x="16" y="788" font-family="monospace" font-size="15" fill="#d7dde5" text-anchor="start" letter-spacing="1" font-weight="normal">FOTO AUS BACKUP · N. VANCE</text><text x="1184" y="788" font-family="monospace" font-size="15" fill="#d7dde5" text-anchor="end" letter-spacing="1" font-weight="normal">11.10.2024 22:27</text>
<rect width="1200" height="800" fill="url(#vig)"/>
<rect width="1200" height="800" filter="url(#grain)" opacity=".07"/>
</svg>