<svg xmlns="http://www.w3.org/2000/svg" viewBox="0 0 1200 800" width="1200" height="800" role="img">
<defs>
<filter id="grain"><feTurbulence type="fractalNoise" baseFrequency="0.9" numOctaves="3" stitchTiles="stitch"/><feColorMatrix type="saturate" values="0"/></filter>
<radialGradient id="vig" cx="50%" cy="45%" r="75%"><stop offset="55%" stop-color="#000" stop-opacity="0"/><stop offset="100%" stop-color="#000" stop-opacity=".78"/></radialGradient>
<linearGradient id="wall" x1="0" y1="0" x2="0" y2="1"><stop offset="0" stop-color="#211c17"/><stop offset="1" stop-color="#0c0e11"/></linearGradient><linearGradient id="floor" x1="0" y1="0" x2="0" y2="1"><stop offset="0" stop-color="#15181d"/><stop offset="1" stop-color="#080a0c"/></linearGradient><linearGradient id="glass" x1="0" y1="0" x2="0" y2="1"><stop offset="0" stop-color="#1d2b36"/><stop offset="1" stop-color="#0a1218"/></linearGradient>
</defs>
<rect width="1200" height="800" fill="url(#wall)"/><g opacity=".5" stroke="#2c2620" stroke-width="3"><line x1="0" y1="0" x2="1200" y2="10"/><line x1="0" y1="60" x2="1200" y2="70"/><line x1="0" y1="120" x2="1200" y2="130"/><line x1="0" y1="180" x2="1200" y2="190"/><line x1="0" y1="240" x2="1200" y2="250"/><line x1="0" y1="300" x2="1200" y2="310"/><line x1="0" y1="360" x2="1200" y2="370"/><line x1="0" y1="420" x2="1200" y2="430"/><line x1="0" y1="480" x2="1200" y2="490"/><line x1="0" y1="540" x2="1200" y2="550"/><line x1="0" y1="600" x2="1200" y2="610"/><line x1="0" y1="660" x2="1200" y2="670"/><line x1="0" y1="720" x2="1200" y2="730"/><line x1="0" y1="780" x2="1200" y2="790"/></g><rect x="0" y="640" width="1200" height="160" fill="#14181c"/><g transform="translate(240,300)" stroke="#2f3843" stroke-width="10" fill="none"><circle cx="120" cy="300" r="110"/><circle cx="560" cy="300" r="110"/><path d="M120 300 L300 120 L470 120 L560 300 M300 120 L360 300 L120 300 M470 120 L520 60"/><path d="M290 100 h110" stroke-width="12"/></g><g><path d="M520 380 q60 -40 120 -30" stroke="#d8dade" stroke-width="9" fill="none" opacity=".9"/><circle cx="580" cy="362" r="52" fill="none" stroke="#9b2f34" stroke-width="3" stroke-dasharray="8 6"/><text x="580" y="300" font-family="monospace" font-size="13" fill="#c2666a" text-anchor="middle" letter-spacing="2" font-weight="normal">LACKSPUR</text></g><g fill="#1a1e24"><rect x="900" y="420" width="240" height="220"/><rect x="930" y="450" width="180" height="40" fill="#22272e"/></g><rect x="0" y="766" width="1200" height="34" fill="#05070a" opacity=".72"/><text x="16" y="788" font-family="monospace" font-size="15" fill="#d7dde5" text-anchor="start" letter-spacing="1" font-weight="normal">ASSERVAT 07 · FAHRRAD (GERaeTESCHUPPEN BRENNAN)</text><text x="1184" y="788" font-family="monospace" font-size="15" fill="#d7dde5" text-anchor="end" letter-spacing="1" font-weight="normal">12.10.2024 14:40</text>
<rect width="1200" height="800" fill="url(#vig)"/>
<rect width="1200" height="800" filter="url(#grain)" opacity=".07"/>
</svg>