<svg xmlns="http://www.w3.org/2000/svg" viewBox="0 0 400 400" width="400" height="400" role="img">
<defs>
<filter id="grain"><feTurbulence type="fractalNoise" baseFrequency="0.9" numOctaves="3" stitchTiles="stitch"/><feColorMatrix type="saturate" values="0"/></filter>
<radialGradient id="vig" cx="50%" cy="45%" r="75%"><stop offset="55%" stop-color="#000" stop-opacity="0"/><stop offset="100%" stop-color="#000" stop-opacity=".78"/></radialGradient>
<linearGradient id="bg" x1="0" y1="0" x2="0" y2="1"><stop offset="0" stop-color="#1b222b"/><stop offset="1" stop-color="#0d1116"/></linearGradient><linearGradient id="skin" x1="0" y1="0" x2="0" y2="1"><stop offset="0" stop-color="#6f5a4a"/><stop offset="1" stop-color="#3a2f29"/></linearGradient>
</defs>
<rect width="400" height="400" fill="url(#bg)"/><path d="M60 400 c0 -80 60 -120 140 -120 s140 40 140 120 z" fill="#24303a"/><rect x="176" y="232" width="48" height="60" fill="#6f5a4a" opacity=".9"/><ellipse cx="200" cy="170" rx="78" ry="96" fill="url(#skin)"/><ellipse cx="122" cy="176" rx="12" ry="20" fill="#6f5a4a"/><ellipse cx="278" cy="176" rx="12" ry="20" fill="#6f5a4a"/><g fill="#171313"><circle cx="150" cy="104" r="26"/><circle cx="188" cy="86" r="28"/><circle cx="228" cy="94" r="26"/><circle cx="256" cy="120" r="24"/><circle cx="136" cy="136" r="22"/><circle cx="266" cy="150" r="20"/></g><g fill="#10151b"><ellipse cx="170" cy="168" rx="9" ry="6"/><ellipse cx="230" cy="168" rx="9" ry="6"/></g><g stroke="#241c18" stroke-width="3" fill="none"><path d="M156 150 q14 -8 28 -2"/><path d="M216 148 q14 -6 28 2"/></g><path d="M200 176 l-8 26 h18z" fill="#2b221d" opacity=".55"/><path d="M180 220 q20 10 40 0" stroke="#2b221d" stroke-width="3" fill="none"/><g opacity="0.05"><rect x="0" y="0" width="400" height="1" fill="#ffffff" opacity=".35"/><rect x="0" y="4" width="400" height="1" fill="#ffffff" opacity=".35"/><rect x="0" y="8" width="400" height="1" fill="#ffffff" opacity=".35"/><rect x="0" y="12" width="400" height="1" fill="#ffffff" opacity=".35"/><rect x="0" y="16" width="400" height="1" fill="#ffffff" opacity=".35"/><rect x="0" y="20" width="400" height="1" fill="#ffffff" opacity=".35"/><rect x="0" y="24" width="400" height="1" fill="#ffffff" opacity=".35"/><rect x="0" y="28" width="400" height="1" fill="#ffffff" opacity=".35"/><rect x="0" y="32" width="400" height="1" fill="#ffffff" opacity=".35"/><rect x="0" y="36" width="400" height="1" fill="#ffffff" opacity=".35"/><rect x="0" y="40" width="400" height="1" fill="#ffffff" opacity=".35"/><rect x="0" y="44" width="400" height="1" fill="#ffffff" opacity=".35"/><rect x="0" y="48" width="400" height="1" fill="#ffffff" opacity=".35"/><rect x="0" y="52" width="400" height="1" fill="#ffffff" opacity=".35"/><rect x="0" y="56" width="400" height="1" fill="#ffffff" opacity=".35"/><rect x="0" y="60" width="400" height="1" fill="#ffffff" opacity=".35"/><rect x="0" y="64" width="400" height="1" fill="#ffffff" opacity=".35"/><rect x="0" y="68" width="400" height="1" fill="#ffffff" opacity=".35"/><rect x="0" y="72" width="400" height="1" fill="#ffffff" opacity=".35"/><rect x="0" y="76" width="400" height="1" fill="#ffffff" opacity=".35"/><rect x="0" y="80" width="400" height="1" fill="#ffffff" opacity=".35"/><rect x="0" y="84" width="400" height="1" fill="#ffffff" opacity=".35"/><rect x="0" y="88" width="400" height="1" fill="#ffffff" opacity=".35"/><rect x="0" y="92" width="400" height="1" fill="#ffffff" opacity=".35"/><rect x="0" y="96" width="400" height="1" fill="#ffffff" opacity=".35"/><rect x="0" y="100" width="400" height="1" fill="#ffffff" opacity=".35"/><rect x="0" y="104" width="400" height="1" fill="#ffffff" opacity=".35"/><rect x="0" y="108" width="400" height="1" fill="#ffffff" opacity=".35"/><rect x="0" y="112" width="400" height="1" fill="#ffffff" opacity=".35"/><rect x="0" y="116" width="400" height="1" fill="#ffffff" opacity=".35"/><rect x="0" y="120" width="400" height="1" fill="#ffffff" opacity=".35"/><rect x="0" y="124" width="400" height="1" fill="#ffffff" opacity=".35"/><rect x="0" y="128" width="400" height="1" fill="#ffffff" opacity=".35"/><rect x="0" y="132" width="400" height="1" fill="#ffffff" opacity=".35"/><rect x="0" y="136" width="400" height="1" fill="#ffffff" opacity=".35"/><rect x="0" y="140" width="400" height="1" fill="#ffffff" opacity=".35"/><rect x="0" y="144" width="400" height="1" fill="#ffffff" opacity=".35"/><rect x="0" y="148" width="400" height="1" fill="#ffffff" opacity=".35"/><rect x="0" y="152" width="400" height="1" fill="#ffffff" opacity=".35"/><rect x="0" y="156" width="400" height="1" fill="#ffffff" opacity=".35"/><rect x="0" y="160" width="400" height="1" fill="#ffffff" opacity=".35"/><rect x="0" y="164" width="400" height="1" fill="#ffffff" opacity=".35"/><rect x="0" y="168" width="400" height="1" fill="#ffffff" opacity=".35"/><rect x="0" y="172" width="400" height="1" fill="#ffffff" opacity=".35"/><rect x="0" y="176" width="400" height="1" fill="#ffffff" opacity=".35"/><rect x="0" y="180" width="400" height="1" fill="#ffffff" opacity=".35"/><rect x="0" y="184" width="400" height="1" fill="#ffffff" opacity=".35"/><rect x="0" y="188" width="400" height="1" fill="#ffffff" opacity=".35"/><rect x="0" y="192" width="400" height="1" fill="#ffffff" opacity=".35"/><rect x="0" y="196" width="400" height="1" fill="#ffffff" opacity=".35"/><rect x="0" y="200" width="400" height="1" fill="#ffffff" opacity=".35"/><rect x="0" y="204" width="400" height="1" fill="#ffffff" opacity=".35"/><rect x="0" y="208" width="400" height="1" fill="#ffffff" opacity=".35"/><rect x="0" y="212" width="400" height="1" fill="#ffffff" opacity=".35"/><rect x="0" y="216" width="400" height="1" fill="#ffffff" opacity=".35"/><rect x="0" y="220" width="400" height="1" fill="#ffffff" opacity=".35"/><rect x="0" y="224" width="400" height="1" fill="#ffffff" opacity=".35"/><rect x="0" y="228" width="400" height="1" fill="#ffffff" opacity=".35"/><rect x="0" y="232" width="400" height="1" fill="#ffffff" opacity=".35"/><rect x="0" y="236" width="400" height="1" fill="#ffffff" opacity=".35"/><rect x="0" y="240" width="400" height="1" fill="#ffffff" opacity=".35"/><rect x="0" y="244" width="400" height="1" fill="#ffffff" opacity=".35"/><rect x="0" y="248" width="400" height="1" fill="#ffffff" opacity=".35"/><rect x="0" y="252" width="400" height="1" fill="#ffffff" opacity=".35"/><rect x="0" y="256" width="400" height="1" fill="#ffffff" opacity=".35"/><rect x="0" y="260" width="400" height="1" fill="#ffffff" opacity=".35"/><rect x="0" y="264" width="400" height="1" fill="#ffffff" opacity=".35"/><rect x="0" y="268" width="400" height="1" fill="#ffffff" opacity=".35"/><rect x="0" y="272" width="400" height="1" fill="#ffffff" opacity=".35"/><rect x="0" y="276" width="400" height="1" fill="#ffffff" opacity=".35"/><rect x="0" y="280" width="400" height="1" fill="#ffffff" opacity=".35"/><rect x="0" y="284" width="400" height="1" fill="#ffffff" opacity=".35"/><rect x="0" y="288" width="400" height="1" fill="#ffffff" opacity=".35"/><rect x="0" y="292" width="400" height="1" fill="#ffffff" opacity=".35"/><rect x="0" y="296" width="400" height="1" fill="#ffffff" opacity=".35"/><rect x="0" y="300" width="400" height="1" fill="#ffffff" opacity=".35"/><rect x="0" y="304" width="400" height="1" fill="#ffffff" opacity=".35"/><rect x="0" y="308" width="400" height="1" fill="#ffffff" opacity=".35"/><rect x="0" y="312" width="400" height="1" fill="#ffffff" opacity=".35"/><rect x="0" y="316" width="400" height="1" fill="#ffffff" opacity=".35"/><rect x="0" y="320" width="400" height="1" fill="#ffffff" opacity=".35"/><rect x="0" y="324" width="400" height="1" fill="#ffffff" opacity=".35"/><rect x="0" y="328" width="400" height="1" fill="#ffffff" opacity=".35"/><rect x="0" y="332" width="400" height="1" fill="#ffffff" opacity=".35"/><rect x="0" y="336" width="400" height="1" fill="#ffffff" opacity=".35"/><rect x="0" y="340" width="400" height="1" fill="#ffffff" opacity=".35"/><rect x="0" y="344" width="400" height="1" fill="#ffffff" opacity=".35"/><rect x="0" y="348" width="400" height="1" fill="#ffffff" opacity=".35"/><rect x="0" y="352" width="400" height="1" fill="#ffffff" opacity=".35"/><rect x="0" y="356" width="400" height="1" fill="#ffffff" opacity=".35"/><rect x="0" y="360" width="400" height="1" fill="#ffffff" opacity=".35"/><rect x="0" y="364" width="400" height="1" fill="#ffffff" opacity=".35"/><rect x="0" y="368" width="400" height="1" fill="#ffffff" opacity=".35"/><rect x="0" y="372" width="400" height="1" fill="#ffffff" opacity=".35"/><rect x="0" y="376" width="400" height="1" fill="#ffffff" opacity=".35"/><rect x="0" y="380" width="400" height="1" fill="#ffffff" opacity=".35"/><rect x="0" y="384" width="400" height="1" fill="#ffffff" opacity=".35"/><rect x="0" y="388" width="400" height="1" fill="#ffffff" opacity=".35"/><rect x="0" y="392" width="400" height="1" fill="#ffffff" opacity=".35"/><rect x="0" y="396" width="400" height="1" fill="#ffffff" opacity=".35"/></g><rect x="0" y="352" width="400" height="48" fill="#070a0d" opacity=".82"/><text x="20" y="382" font-family="monospace" font-size="15" fill="#9aa4b0" text-anchor="start" letter-spacing="2" font-weight="normal">E. MARSH · 18</text>
<rect width="400" height="400" fill="url(#vig)"/>
<rect width="400" height="400" filter="url(#grain)" opacity=".07"/>
</svg>